<svg width="76px" height="22px" viewBox="0 0 76 22" version="1.1" xmlns="http://www.w3.org/2000/svg" xmlns:xlink="http://www.w3.org/1999/xlink">
            <g id="Other-Templates" stroke="none" stroke-width="1" fill="none" fill-rule="evenodd">
              <g id="404" transform="translate(-424.000000, -461.000000)" fill="#393939">
                <path d="M493.223361,493.591144 C493.345361,493.362144 493.527361,493.233144 493.648361,493.292144 C493.766361,493.350144 493.731361,493.183144 493.570361,492.918144 C493.360361,492.572144 493.375361,492.446144 493.624361,492.464144 C494.153361,492.501144 494.168361,492.121144 493.652361,491.748144 C493.135361,491.374144 492.949361,491.038144 493.314361,491.138144 C493.649361,491.230144 493.672361,490.921144 493.378361,490.287144 C492.700361,488.825144 489.971361,484.454144 487.687361,481.172144 C486.275361,479.144144 484.838361,476.987144 484.483361,476.362144 C483.678361,474.945144 483.166361,474.276144 483.318361,474.837144 C483.378361,475.061144 483.276361,475.285144 483.087361,475.343144 C482.889361,475.404144 482.777361,475.321144 482.821361,475.147144 C482.868361,474.963144 482.821361,474.932144 482.701361,475.067144 C482.531361,475.260144 482.506361,476.606144 482.668361,476.917144 C482.697361,476.975144 482.981361,477.654144 483.289361,478.404144 C483.597361,479.154144 484.091361,480.162144 484.371361,480.607144 C484.651361,481.051144 484.962361,481.569144 485.053361,481.737144 C485.532361,482.628144 485.918361,483.161144 486.053361,483.120144 C486.124361,483.098144 486.305361,483.416144 486.444361,483.808144 C486.583361,484.201144 487.001361,484.880144 487.348361,485.280144 C488.974361,487.155144 488.441361,487.117144 485.874361,485.176144 C478.989361,479.972144 473.422361,476.390144 467.029361,473.048144 C464.567361,471.762144 462.551361,470.674144 462.536361,470.626144 C462.521361,470.575144 462.653361,470.494144 462.850361,470.433144 C463.048361,470.373144 463.095361,470.248144 462.963361,470.134144 C462.807361,470.000144 462.892361,469.941144 463.230361,469.945144 C463.591361,469.948144 463.821361,469.714144 464.084361,469.080144 C464.277361,468.611144 464.359361,468.135144 464.262361,468.048144 C464.155361,467.954144 464.196361,467.876144 464.360361,467.862144 C464.513361,467.847144 464.632361,467.537144 464.621361,467.178144 C464.607361,466.724144 464.522361,466.545144 464.347361,466.599144 C464.185361,466.649144 464.183361,466.572144 464.343361,466.386144 C464.617361,466.066144 463.994361,464.778144 463.621361,464.891144 C463.489361,464.931144 463.420361,464.887144 463.470361,464.793144 C463.589361,464.568144 462.178361,463.161144 461.914361,463.242144 C461.819361,463.272144 461.705361,463.187144 461.664361,463.053144 C461.459361,462.381144 454.912361,458.667144 450.637361,456.797144 C446.084361,454.806144 437.455361,452.305144 437.680361,453.042144 C437.718361,453.166144 438.204361,453.340144 438.787361,453.440144 C439.787361,453.610144 441.681361,454.093144 443.848361,454.734144 C445.045361,455.086144 449.505361,456.794144 451.203361,457.549144 C452.678361,458.204144 459.306361,461.633144 459.345361,461.760144 C459.376361,461.862144 461.237361,463.230144 461.516361,463.357144 C461.609361,463.400144 462.058361,463.801144 462.527361,464.261144 C462.994361,464.721144 463.471361,465.127144 463.600361,465.175144 C463.738361,465.228144 463.759361,465.341144 463.651361,465.461144 C463.549361,465.574144 463.270361,465.409144 463.005361,465.079144 C462.741361,464.750144 462.401361,464.541144 462.220361,464.596144 C462.044361,464.651144 461.934361,464.565144 461.975361,464.405144 C462.094361,463.945144 458.827361,461.799144 454.971361,459.805144 C450.858361,457.680144 449.442361,457.043144 446.524361,456.013144 C445.419361,455.622144 444.378361,455.247144 444.228361,455.187144 C443.959361,455.076144 441.764361,454.444144 440.271361,454.043144 C438.621361,453.603144 432.117361,452.572144 431.729361,452.691144 C431.171361,452.862144 431.582361,453.156144 432.530361,453.267144 C432.978361,453.320144 433.181361,453.415144 432.994361,453.487144 C432.807361,453.556144 432.405361,453.530144 432.086361,453.426144 C431.765361,453.321144 431.488361,453.332144 431.460361,453.449144 C431.368361,453.820144 431.848361,454.028144 432.813361,454.035144 C433.343361,454.039144 433.977361,454.079144 434.223361,454.123144 C434.477361,454.170144 434.810361,454.161144 434.998361,454.104144 C435.174361,454.049144 435.369361,454.136144 435.416361,454.289144 C435.516361,454.620144 436.506361,454.917144 436.713361,454.679144 C436.809361,454.569144 436.925361,454.556144 437.003361,454.649144 C437.201361,454.885144 439.454361,455.542144 440.080361,455.544144 C440.370361,455.546144 440.638361,455.638144 440.671361,455.746144 C440.704361,455.855144 440.878361,455.834144 441.054361,455.701144 C441.269361,455.539144 441.351361,455.554144 441.302361,455.746144 C441.230361,456.020144 442.258361,456.375144 442.560361,456.180144 C442.633361,456.134144 442.737361,456.212144 442.778361,456.344144 C442.818361,456.478144 442.903361,456.508144 442.955361,456.411144 C443.012361,456.304144 443.222361,456.354144 443.447361,456.526144 C443.659361,456.690144 444.026361,456.771144 444.246361,456.703144 C444.467361,456.635144 444.667361,456.708144 444.683361,456.860144 C444.723361,457.234144 446.246361,457.747144 446.489361,457.469144 C446.586361,457.359144 446.675361,457.383144 446.686361,457.526144 C446.697361,457.665144 447.271361,458.024144 447.933361,458.301144 C448.596361,458.581144 449.033361,458.703144 448.880361,458.568144 C448.700361,458.405144 448.706361,458.342144 448.899361,458.392144 C449.074361,458.439144 449.238361,458.578144 449.292361,458.732144 C449.341361,458.872144 449.706361,459.106144 450.084361,459.237144 C450.514361,459.387144 450.675361,459.384144 450.502361,459.230144 C450.270361,459.023144 450.302361,459.009144 450.686361,459.161144 C450.932361,459.258144 451.124361,459.444144 451.095361,459.555144 C451.063361,459.672144 451.328361,459.846144 451.697361,459.949144 C452.062361,460.052144 452.894361,460.451144 453.570361,460.848144 C454.246361,461.245144 454.923361,461.520144 455.095361,461.467144 C455.271361,461.413144 455.375361,461.486144 455.338361,461.634144 C455.304361,461.773144 455.449361,461.841144 455.647361,461.780144 C455.845361,461.720144 455.978361,461.747144 455.930361,461.839144 C455.797361,462.091144 457.594361,463.115144 457.968361,463.000144 C458.144361,462.947144 458.248361,463.020144 458.210361,463.168144 C458.117361,463.534144 458.824361,463.976144 459.074361,463.708144 C459.183361,463.591144 459.223361,463.597144 459.162361,463.721144 C459.100361,463.848144 459.497361,464.246144 460.065361,464.628144 C460.634361,465.008144 461.262361,465.494144 461.497361,465.734144 C461.734361,465.974144 461.990361,466.075144 462.085361,465.963144 C462.186361,465.845144 462.284361,465.835144 462.330361,465.938144 C462.372361,466.032144 462.571361,466.491144 462.782361,466.982144 C463.284361,468.144144 463.003361,468.535144 461.272361,469.088144 L459.914361,469.524144 L457.309361,468.475144 C451.770361,466.248144 445.471361,464.784144 442.112361,464.945144 C440.666361,465.012144 440.268361,465.098144 440.195361,465.361144 C440.129361,465.596144 440.081361,465.618144 440.025361,465.436144 C439.968361,465.246144 439.802361,465.294144 439.373361,465.622144 C439.062361,465.862144 438.874361,466.129144 438.963361,466.206144 C439.062361,466.292144 439.052361,466.372144 438.939361,466.406144 C438.833361,466.440144 438.784361,466.635144 438.827361,466.862144 C438.868361,467.082144 438.937361,467.468144 438.981361,467.720144 C439.029361,467.995144 439.164361,468.123144 439.319361,468.040144 C439.462361,467.962144 439.631361,468.076144 439.698361,468.297144 C439.764361,468.514144 440.042361,468.868144 440.307361,469.076144 C440.862361,469.509144 444.674361,470.937144 445.102361,470.869144 C445.260361,470.845144 445.710361,470.927144 446.058361,471.044144 C446.407361,471.162144 446.849361,471.225144 447.000361,471.179144 C447.155361,471.131144 447.314361,471.182144 447.347361,471.290144 C447.381361,471.401144 447.808361,471.498144 448.317361,471.511144 C448.811361,471.525144 449.818361,471.624144 450.524361,471.730144 C451.230361,471.836144 451.965361,471.908144 452.135361,471.888144 C452.315361,471.867144 452.636361,471.873144 452.885361,471.901144 C453.134361,471.928144 453.449361,471.846144 453.621361,471.711144 C453.795361,471.574144 453.894361,471.584144 453.857361,471.736144 C453.818361,471.892144 453.880361,471.970144 454.012361,471.930144 C454.144361,471.889144 454.258361,471.757144 454.296361,471.601144 C454.331361,471.463144 454.541361,471.296144 454.742361,471.247144 C455.090361,471.163144 455.092361,471.174144 454.768361,471.372144 C454.565361,471.497144 454.442361,471.685144 454.480361,471.811144 C454.538361,471.999144 454.683361,472.000144 455.493361,471.817144 C455.650361,471.779144 455.902361,471.825144 456.039361,471.913144 C456.183361,472.005144 456.173361,471.835144 456.016361,471.522144 C455.817361,471.124144 455.835361,470.972144 456.080361,470.984144 C456.283361,470.994144 456.418361,471.182144 456.414361,471.448144 C456.409361,471.780144 456.548361,471.884144 456.945361,471.849144 C458.538361,471.709144 458.916361,471.670144 459.300361,471.606144 C459.529361,471.567144 459.837361,471.625144 459.952361,471.730144 C460.075361,471.842144 460.477361,471.913144 460.879361,471.892144 C461.543361,471.859144 461.559361,471.834144 461.132361,471.537144 C460.817361,471.320144 460.946361,471.324144 461.547361,471.556144 C462.146361,471.787144 462.418361,472.028144 462.419361,472.326144 C462.419361,472.622144 462.792361,472.956144 463.594361,473.378144 C464.253361,473.724144 464.793361,474.073144 464.823361,474.172144 C464.852361,474.269144 465.182361,474.365144 465.549361,474.384144 C465.916361,474.404144 466.075361,474.476144 465.899361,474.543144 C465.683361,474.625144 465.673361,474.697144 465.869361,474.761144 C466.270361,474.890144 472.471361,478.612144 474.664361,480.040144 C475.671361,480.697144 476.552361,481.200144 476.643361,481.172144 C476.742361,481.142144 476.835361,481.209144 476.876361,481.342144 C476.931361,481.524144 480.219361,483.939144 481.675361,484.868144 C481.845361,484.976144 482.837361,485.743144 483.888361,486.580144 C484.940361,487.416144 486.076361,488.258144 486.423361,488.458144 C486.777361,488.662144 487.014361,488.890144 486.967361,488.980144 C486.917361,489.071144 486.993361,489.105144 487.147361,489.057144 C487.301361,489.010144 487.386361,489.074144 487.350361,489.211144 C487.318361,489.339144 487.474361,489.457144 487.693361,489.468144 C487.913361,489.481144 488.061361,489.568144 488.016361,489.660144 C487.972361,489.753144 486.781361,489.512144 485.364361,489.124144 C482.765361,488.414144 478.860361,487.678144 477.809361,487.701144 L477.261361,487.713144 L477.948361,487.997144 L478.637361,488.281144 L478.001361,488.367144 C477.655361,488.414144 477.236361,488.422144 477.080361,488.384144 C476.866361,488.331144 476.887361,488.406144 477.165361,488.682144 C477.667361,489.181144 477.690361,489.303144 477.280361,489.275144 C477.093361,489.261144 476.968361,489.455144 476.979361,489.741144 C476.991361,490.096144 477.210361,490.301144 477.771361,490.487144 C478.200361,490.630144 478.640361,490.641144 478.753361,490.513144 C478.879361,490.372144 478.931361,490.383144 478.889361,490.544144 C478.801361,490.872144 479.558361,491.218144 479.791361,490.956144 C479.883361,490.853144 480.039361,490.892144 480.156361,491.049144 C480.267361,491.199144 481.456361,491.566144 482.772361,491.855144 C484.102361,492.147144 486.740361,492.762144 488.663361,493.231144 C492.457361,494.153144 492.907361,494.189144 493.223361,493.591144 L493.223361,493.591144 Z M487.545361,482.374144 C486.650361,481.105144 485.812361,479.967144 485.695361,479.864144 C485.572361,479.756144 485.571361,479.649144 485.691361,479.612144 C485.805361,479.577144 486.527361,480.479144 487.283361,481.598144 C488.039361,482.717144 488.733361,483.737144 488.812361,483.844144 C488.889361,483.949144 489.008361,484.195144 489.069361,484.368144 C489.129361,484.547144 488.439361,483.645144 487.545361,482.374144 L487.545361,482.374144 Z M489.693361,485.509144 C489.797361,485.390144 489.916361,485.449144 489.976361,485.648144 C490.037361,485.845144 490.044361,486.001144 489.993361,486.016144 C489.751361,486.090144 489.523361,485.704144 489.693361,485.509144 L489.693361,485.509144 Z M435.106361,453.708144 C434.614361,453.523144 434.625361,453.514144 435.271361,453.581144 C435.942361,453.653144 436.144361,453.753144 435.812361,453.856144 C435.712361,453.885144 435.405361,453.822144 435.106361,453.708144 L435.106361,453.708144 Z M436.783361,454.040144 C436.500361,453.981144 436.254361,453.883144 436.235361,453.821144 C436.216361,453.761144 436.433361,453.760144 436.715361,453.820144 C436.998361,453.879144 437.244361,453.979144 437.262361,454.038144 C437.281361,454.099144 437.065361,454.100144 436.783361,454.040144 L436.783361,454.040144 Z M437.910361,454.267144 C437.713361,454.254144 437.577361,454.175144 437.618361,454.099144 C437.659361,454.021144 437.825361,453.989144 437.983361,454.032144 C438.399361,454.145144 438.352361,454.296144 437.910361,454.267144 L437.910361,454.267144 Z M441.227361,455.049144 C439.742361,454.674144 438.734361,454.283144 439.945361,454.549144 C441.414361,454.873144 442.154361,455.091144 442.190361,455.209144 C442.205361,455.258144 441.774361,455.187144 441.227361,455.049144 L441.227361,455.049144 Z M442.598361,455.520144 C442.544361,455.342144 442.598361,455.233144 442.724361,455.263144 C442.856361,455.295144 442.955361,455.351144 442.972361,455.404144 C442.988361,455.458144 442.937361,455.561144 442.845361,455.660144 C442.758361,455.755144 442.652361,455.696144 442.598361,455.520144 L442.598361,455.520144 Z M446.104361,456.603144 C444.883361,456.151144 444.838361,456.001144 446.024361,456.340144 C446.524361,456.482144 446.970361,456.682144 446.999361,456.779144 C447.029361,456.874144 446.619361,456.793144 446.104361,456.603144 L446.104361,456.603144 Z M447.538361,457.084144 C447.168361,456.821144 447.177361,456.811144 447.613361,456.976144 C448.076361,457.154144 448.234361,457.293144 448.041361,457.353144 C447.990361,457.367144 447.775361,457.252144 447.538361,457.084144 L447.538361,457.084144 Z M448.907361,457.630144 C448.538361,457.367144 448.546361,457.356144 448.983361,457.524144 C449.446361,457.700144 449.604361,457.840144 449.410361,457.900144 C449.360361,457.914144 449.144361,457.799144 448.907361,457.630144 L448.907361,457.630144 Z M450.862361,458.481144 L450.149361,458.034144 L450.905361,458.381144 C451.632361,458.715144 451.821361,458.850144 451.642361,458.905144 C451.606361,458.916144 451.251361,458.723144 450.862361,458.481144 L450.862361,458.481144 Z M455.415361,460.706144 L452.668361,459.195144 L455.464361,460.632144 C458.061361,461.967144 458.383361,462.151144 458.228361,462.198144 C458.192361,462.209144 456.936361,461.543144 455.415361,460.706144 L455.415361,460.706144 Z M439.935361,466.247144 C439.967361,465.827144 440.109361,465.707144 440.204361,466.020144 C440.241361,466.139144 440.193361,466.298144 440.086361,466.418144 C439.978361,466.538144 439.917361,466.469144 439.935361,466.247144 L439.935361,466.247144 Z M441.117361,466.054144 C441.255361,465.944144 441.318361,465.729144 441.264361,465.551144 C441.210361,465.375144 441.264361,465.214144 441.390361,465.175144 C441.639361,465.099144 441.670361,465.161144 441.639361,465.678144 C441.626361,465.892144 441.447361,466.112144 441.246361,466.160144 C441.021361,466.214144 440.971361,466.173144 441.117361,466.054144 L441.117361,466.054144 Z M442.692361,465.895144 C442.887361,465.907144 443.032361,466.029144 443.000361,466.154144 C442.963361,466.295144 442.845361,466.365144 442.704361,466.330144 C442.309361,466.229144 442.298361,465.867144 442.692361,465.895144 L442.692361,465.895144 Z M443.699361,466.044144 C443.896361,466.046144 444.241361,466.046144 444.457361,466.046144 C444.674361,466.045144 444.821361,466.116144 444.781361,466.200144 C444.742361,466.284144 444.413361,466.335144 444.070361,466.312144 C443.382361,466.263144 443.071361,466.040144 443.699361,466.044144 L443.699361,466.044144 Z M440.709361,466.806144 C440.973361,466.648144 441.321361,466.557144 441.467361,466.612144 C441.619361,466.665144 442.122361,466.665144 442.610361,466.612144 C443.098361,466.556144 443.505361,466.590144 443.536361,466.691144 C443.598361,466.894144 444.549361,466.938144 444.951361,466.758144 C445.142361,466.672144 445.216361,466.746144 445.159361,466.965144 C445.094361,467.218144 445.146361,467.196144 445.362361,466.880144 C445.594361,466.539144 445.584361,466.433144 445.309361,466.354144 C445.071361,466.284144 445.046361,466.226144 445.229361,466.168144 C445.578361,466.055144 445.899361,466.382144 445.683361,466.632144 C445.384361,466.979144 445.611361,467.261144 446.072361,467.120144 C446.315361,467.046144 446.540361,467.075144 446.573361,467.185144 C446.607361,467.294144 446.992361,467.413144 447.436361,467.451144 C447.880361,467.489144 448.390361,467.628144 448.579361,467.765144 C448.766361,467.902144 449.007361,467.914144 449.117361,467.794144 C449.225361,467.675144 449.404361,467.654144 449.511361,467.745144 C449.616361,467.837144 450.097361,467.974144 450.551361,468.042144 C451.025361,468.114144 451.902361,468.407144 452.547361,468.711144 C453.193361,469.014144 454.017361,469.361144 454.424361,469.499144 C455.522361,469.874144 454.890361,470.081144 452.763361,470.045144 C448.217361,469.966144 442.972361,468.885144 441.031361,467.625144 L440.222361,467.100144 L440.709361,466.806144 Z M448.129361,466.769144 C448.496361,466.866144 449.032361,466.991144 449.347361,467.052144 C450.159361,467.210144 450.119361,467.374144 449.293361,467.271144 C448.918361,467.224144 448.364361,467.054144 448.047361,466.891144 C447.475361,466.596144 447.475361,466.596144 448.129361,466.769144 L448.129361,466.769144 Z M451.267361,467.593144 C451.634361,467.688144 451.631361,467.760144 451.258361,467.874144 C451.082361,467.928144 450.952361,467.872144 450.980361,467.755144 C451.011361,467.622144 451.127361,467.557144 451.267361,467.593144 L451.267361,467.593144 Z M452.668361,468.361144 C452.629361,468.425144 452.412361,468.319144 452.186361,468.121144 C451.792361,467.779144 451.803361,467.773144 452.511361,467.963144 C453.350361,468.191144 454.199361,468.530144 454.237361,468.654144 C454.252361,468.702144 453.930361,468.631144 453.503361,468.491144 C453.074361,468.351144 452.709361,468.293144 452.668361,468.361144 L452.668361,468.361144 Z M454.875361,468.772144 C455.094361,468.860144 455.296361,468.971144 455.309361,469.012144 C455.322361,469.054144 455.162361,469.080144 454.966361,469.069144 C454.769361,469.058144 454.567361,468.946144 454.531361,468.828144 C454.491361,468.695144 454.628361,468.672144 454.875361,468.772144 L454.875361,468.772144 Z M455.906361,469.155144 C456.369361,469.333144 456.527361,469.472144 456.333361,469.531144 C456.283361,469.547144 456.067361,469.431144 455.831361,469.263144 C455.461361,469.001144 455.470361,468.989144 455.906361,469.155144 L455.906361,469.155144 Z M441.231361,469.024144 L440.363361,468.504144 L441.289361,468.940144 C442.132361,469.335144 442.334361,469.469144 442.165361,469.522144 C442.128361,469.532144 441.711361,469.310144 441.231361,469.024144 L441.231361,469.024144 Z M444.386361,470.255144 C443.818361,470.129144 443.129361,469.895144 442.854361,469.733144 C442.583361,469.572144 443.042361,469.636144 443.859361,469.871144 C445.600361,470.373144 445.901361,470.592144 444.386361,470.255144 L444.386361,470.255144 Z M447.286361,470.936144 C446.720361,470.890144 446.224361,470.763144 446.191361,470.654144 C446.157361,470.542144 446.348361,470.499144 446.630361,470.556144 C446.908361,470.612144 447.425361,470.679144 447.794361,470.707144 C448.163361,470.735144 448.428361,470.815144 448.390361,470.887144 C448.353361,470.957144 447.854361,470.980144 447.286361,470.936144 L447.286361,470.936144 Z M451.184361,470.623144 C450.548361,470.818144 445.024361,469.904144 443.382361,469.332144 C441.633361,468.724144 439.363361,467.484144 439.772361,467.359144 C439.929361,467.311144 440.506361,467.569144 441.053361,467.931144 C441.601361,468.294144 442.173361,468.554144 442.324361,468.507144 C442.481361,468.459144 442.715361,468.533144 442.869361,468.678144 C443.592361,469.361144 447.496361,470.043144 452.474361,470.361144 C452.940361,470.391144 452.946361,470.404144 452.589361,470.615144 C452.385361,470.737144 452.067361,470.762144 451.895361,470.670144 C451.720361,470.577144 451.404361,470.556144 451.184361,470.623144 L451.184361,470.623144 Z M450.324361,471.273144 C450.105361,471.262144 449.946361,471.188144 449.986361,471.111144 C450.026361,471.034144 450.257361,470.974144 450.476361,470.985144 C450.696361,470.994144 450.855361,471.070144 450.815361,471.147144 C450.774361,471.222144 450.543361,471.282144 450.324361,471.273144 L450.324361,471.273144 Z M453.410361,470.666144 C453.092361,470.571144 453.111361,470.516144 453.507361,470.396144 C453.771361,470.315144 454.033361,470.347144 454.069361,470.464144 C454.110361,470.597144 454.071361,470.705144 453.971361,470.737144 C453.884361,470.762144 453.621361,470.732144 453.410361,470.666144 L453.410361,470.666144 Z M456.992361,469.089144 C456.037361,468.721144 455.124361,468.371144 454.976361,468.318144 C453.352361,467.725144 452.687361,467.511144 452.576361,467.545144 C452.503361,467.568144 452.189361,467.459144 451.877361,467.306144 C451.018361,466.882144 445.953361,465.785144 444.279361,465.659144 C443.442361,465.596144 442.558361,465.491144 442.282361,465.420144 C441.827361,465.305144 441.833361,465.288144 442.363361,465.216144 C443.304361,465.086144 447.254361,465.716144 449.797361,466.402144 C454.253361,467.604144 459.481361,469.533144 458.825361,469.735144 C458.776361,469.749144 457.946361,469.456144 456.992361,469.089144 L456.992361,469.089144 Z M488.744361,487.121144 C488.784361,487.253144 488.772361,487.355144 488.712361,487.372144 C488.652361,487.390144 488.533361,487.330144 488.414361,487.221144 C488.300361,487.119144 488.313361,487.011144 488.445361,486.971144 C488.577361,486.931144 488.705361,486.995144 488.744361,487.121144 L488.744361,487.121144 Z M468.615361,475.365144 C467.865361,474.975144 466.329361,474.180144 465.186361,473.591144 C464.044361,473.001144 463.185361,472.502144 463.270361,472.476144 C463.446361,472.422144 469.886361,475.788144 469.939361,475.961144 C469.958361,476.022144 469.359361,475.752144 468.615361,475.365144 L468.615361,475.365144 Z M471.887361,477.258144 L471.020361,476.741144 L471.946361,477.175144 C472.788361,477.571144 472.991361,477.706144 472.822361,477.757144 C472.785361,477.769144 472.368361,477.545144 471.887361,477.258144 L471.887361,477.258144 Z M474.243361,478.709144 L473.674361,478.341144 L474.283361,478.606144 C474.866361,478.859144 475.058361,479.003144 474.879361,479.058144 C474.843361,479.070144 474.547361,478.906144 474.243361,478.709144 L474.243361,478.709144 Z M475.880361,479.778144 C475.511361,479.514144 475.519361,479.502144 475.955361,479.669144 C476.419361,479.847144 476.577361,479.987144 476.383361,480.045144 C476.333361,480.062144 476.117361,479.946144 475.880361,479.778144 L475.880361,479.778144 Z M477.097361,480.612144 C476.728361,480.348144 476.737361,480.336144 477.172361,480.503144 C477.636361,480.681144 477.794361,480.820144 477.600361,480.880144 C477.550361,480.896144 477.334361,480.780144 477.097361,480.612144 L477.097361,480.612144 Z M482.261361,485.111144 C482.123361,484.937144 482.134361,484.838144 482.286361,484.878144 C482.521361,484.942144 482.753361,485.334144 482.585361,485.385144 C482.534361,485.402144 482.398361,485.287144 482.261361,485.111144 L482.261361,485.111144 Z M483.250361,485.001144 C482.880361,484.739144 482.889361,484.728144 483.325361,484.895144 C483.788361,485.072144 483.946361,485.211144 483.753361,485.271144 C483.702361,485.286144 483.487361,485.170144 483.250361,485.001144 L483.250361,485.001144 Z M488.606361,488.246144 C488.465361,488.212144 487.594361,487.570144 486.690361,486.832144 C480.904361,482.113144 474.114361,477.635144 466.949361,473.813144 C463.903361,472.187144 461.628361,470.910144 461.869361,470.962144 C462.112361,471.015144 462.717361,471.255144 463.225361,471.501144 C463.733361,471.746144 464.128361,471.900144 464.111361,471.845144 C464.095361,471.790144 466.098361,472.890144 468.556361,474.285144 C475.269361,478.095144 481.556361,482.323144 486.877361,486.608144 C488.940361,488.267144 489.026361,488.349144 488.606361,488.246144 L488.606361,488.246144 Z M491.095361,487.734144 C490.942361,487.694144 490.800361,487.554144 490.753361,487.400144 C490.704361,487.240144 490.798361,487.241144 490.987361,487.401144 C491.387361,487.737144 491.413361,487.817144 491.095361,487.734144 L491.095361,487.734144 Z M479.323361,490.133144 C479.305361,490.074144 479.364361,489.955144 479.472361,489.835144 C479.574361,489.720144 479.682361,489.736144 479.722361,489.867144 C479.763361,489.999144 479.699361,490.127144 479.573361,490.166144 C479.441361,490.206144 479.341361,490.195144 479.323361,490.133144 L479.323361,490.133144 Z M480.343361,489.930144 C480.229361,489.827144 480.243361,489.720144 480.374361,489.679144 C480.506361,489.639144 480.635361,489.703144 480.673361,489.830144 C480.714361,489.962144 480.701361,490.064144 480.641361,490.081144 C480.582361,490.099144 480.463361,490.039144 480.343361,489.930144 L480.343361,489.930144 Z M492.429361,489.737144 C492.277361,489.697144 492.134361,489.558144 492.087361,489.404144 C492.038361,489.245144 492.132361,489.245144 492.321361,489.404144 C492.721361,489.741144 492.747361,489.820144 492.429361,489.737144 L492.429361,489.737144 Z M462.076361,472.780144 C461.953361,472.577144 461.713361,472.469144 461.519361,472.529144 C461.233361,472.616144 461.205361,472.568144 461.341361,472.221144 C461.428361,472.002144 461.613361,471.839144 461.738361,471.871144 C461.869361,471.905144 462.045361,472.199144 462.134361,472.534144 C462.235361,472.913144 462.214361,473.004144 462.076361,472.780144 L462.076361,472.780144 Z M436.132361,452.464144 C437.878361,452.765144 437.536361,453.043144 435.747361,452.778144 C434.941361,452.658144 434.231361,452.556144 434.162361,452.550144 C434.096361,452.545144 433.717361,452.509144 433.345361,452.474144 C432.974361,452.440144 432.576361,452.431144 432.487361,452.459144 C432.396361,452.487144 432.077361,452.416144 431.778361,452.302144 C431.108361,452.047144 434.432361,452.171144 436.132361,452.464144 L436.132361,452.464144 Z M431.059361,452.075144 C431.010361,452.168144 430.820361,452.237144 430.648361,452.225144 C430.446361,452.211144 430.480361,452.148144 430.739361,452.052144 C430.956361,451.974144 431.107361,451.985144 431.059361,452.075144 L431.059361,452.075144 Z M430.695361,452.932144 C430.051361,453.027144 429.735361,452.818144 430.274361,452.653144 C430.516361,452.579144 430.804361,452.568144 430.914361,452.626144 C431.213361,452.785144 431.156361,452.864144 430.695361,452.932144 L430.695361,452.932144 Z M430.697361,453.802144 C430.437361,453.816144 430.196361,453.737144 430.163361,453.628144 C430.095361,453.407144 430.605361,453.199144 430.868361,453.340144 C431.256361,453.547144 431.171361,453.778144 430.697361,453.802144 L430.697361,453.802144 Z" id="Fill-1" transform="translate(462.015201, 472.995443) scale(-1, 1) rotate(-37.000000) translate(-462.015201, -472.995443) "></path>
              </g>
            </g>
          </svg>